<?xml version="1.0" encoding="UTF-8" standalone="no"?>
<!-- Created with Inkscape (http://www.inkscape.org/) -->

<svg
   width="297mm"
   height="148mm"
   viewBox="0 0 297 148"
   version="1.1"
   id="svg5"
   xml:space="preserve"
   inkscape:version="1.2.2 (732a01da63, 2022-12-09)"
   sodipodi:docname="banner.svg"
   xmlns:inkscape="http://www.inkscape.org/namespaces/inkscape"
   xmlns:sodipodi="http://sodipodi.sourceforge.net/DTD/sodipodi-0.dtd"
   xmlns="http://www.w3.org/2000/svg"
   xmlns:svg="http://www.w3.org/2000/svg"><sodipodi:namedview
     id="namedview7"
     pagecolor="#505050"
     bordercolor="#ffffff"
     borderopacity="1"
     inkscape:showpageshadow="0"
     inkscape:pageopacity="0"
     inkscape:pagecheckerboard="1"
     inkscape:deskcolor="#505050"
     inkscape:document-units="mm"
     showgrid="false"
     inkscape:zoom="1"
     inkscape:cx="532"
     inkscape:cy="297"
     inkscape:window-width="1920"
     inkscape:window-height="1009"
     inkscape:window-x="-8"
     inkscape:window-y="-8"
     inkscape:window-maximized="1"
     inkscape:current-layer="layer1" /><defs
     id="defs2" /><g
     inkscape:label="Layer 1"
     inkscape:groupmode="layer"
     id="layer1"><rect
       style="fill:#1a1a1a;fill-opacity:1;stroke-width:0.989334"
       id="rect7711"
       width="297.00067"
       height="147.99896"
       x="9.649073e-05"
       y="0.00061059895" /><g
       id="g9580"
       transform="matrix(0.92347801,0,0,0.92347801,1.1894854,5.6474885)"><path
         sodipodi:type="star"
         style="fill:#404040;fill-opacity:0.5625;stroke:none;stroke-width:0.352999;stroke-linecap:square;stroke-linejoin:round;stroke-miterlimit:3.5"
         id="path1518"
         inkscape:flatsided="false"
         sodipodi:sides="4"
         sodipodi:cx="95.656204"
         sodipodi:cy="148.67912"
         sodipodi:r1="75.154144"
         sodipodi:r2="37.577065"
         sodipodi:arg1="-1.5707963"
         sodipodi:arg2="-0.78539816"
         inkscape:rounded="0.05"
         inkscape:randomized="0"
         d="m 95.656206,73.524979 c 2.768727,0 24.613214,46.625361 26.570994,48.583151 1.95779,1.95778 48.58315,23.80227 48.58315,26.57099 0,2.76873 -46.62536,24.61321 -48.58315,26.571 -1.95778,1.95779 -23.802271,48.58315 -26.570998,48.58315 -2.768727,0 -24.613209,-46.62536 -26.570995,-48.58315 -1.957786,-1.95779 -48.583147,-23.80227 -48.583147,-26.571 0,-2.76873 46.625361,-24.61321 48.583147,-26.57099 1.957786,-1.95779 23.802272,-48.583151 26.570999,-48.583151 z"
         inkscape:transform-center-x="1.2051176e-06"
         inkscape:transform-center-y="-1.8731229e-06"
         transform="translate(77.026538,-70.577805)" /><path
         sodipodi:type="star"
         style="fill:#404040;fill-opacity:0.5625;stroke:none;stroke-width:0.352999;stroke-linecap:square;stroke-linejoin:round;stroke-miterlimit:3.5"
         id="path1518-4"
         inkscape:flatsided="false"
         sodipodi:sides="4"
         sodipodi:cx="95.656204"
         sodipodi:cy="148.67912"
         sodipodi:r1="75.154144"
         sodipodi:r2="37.577065"
         sodipodi:arg1="-1.5707963"
         sodipodi:arg2="-0.78539816"
         inkscape:rounded="0.05"
         inkscape:randomized="0"
         d="m 95.656206,73.524979 c 2.768727,0 24.613214,46.625361 26.570994,48.583151 1.95779,1.95778 48.58315,23.80227 48.58315,26.57099 0,2.76873 -46.62536,24.61321 -48.58315,26.571 -1.95778,1.95779 -23.802271,48.58315 -26.570998,48.58315 -2.768727,0 -24.613209,-46.62536 -26.570995,-48.58315 -1.957786,-1.95779 -48.583147,-23.80227 -48.583147,-26.571 0,-2.76873 46.625361,-24.61321 48.583147,-26.57099 1.957786,-1.95779 23.802272,-48.583151 26.570999,-48.583151 z"
         inkscape:transform-center-y="-1.8544515e-06"
         transform="matrix(0.43272199,0,0,0.43272199,64.653297,-37.467004)" /></g><g
       aria-label="[MCPSharp]"
       id="text1574"
       style="font-size:25.4px;font-family:'Cascadia Code';-inkscape-font-specification:'Cascadia Code';fill:#4ec9b0;stroke-width:0.352999;stroke-linecap:square;stroke-linejoin:round;stroke-miterlimit:3.5"><path
         d="M 79.774408,83.736446 V 60.816915 h 2.480469 v 22.919531 z m 2.232422,0 V 81.38 h 5.531445 v 2.356446 z m 0,-20.563086 v -2.356445 h 5.531445 v 2.356445 z"
         style="fill:#b3b3b3"
         id="path10189" /><path
         d="m 97.063275,73.888985 0.37207,-2.852539 h 0.148828 l 2.00918,-7.56543 h 1.761137 v 3.125391 h -0.71934 l -2.00918,7.292578 z m -5.432226,7.193359 V 63.471016 h 2.38125 v 17.611328 z m 4.71289,-7.193359 -2.00918,-7.292578 h -0.719335 v -3.125391 h 1.761132 l 2.00918,7.56543 h 0.09922 l 0.248047,2.852539 z m 4.613671,7.193359 V 63.471016 h 2.38125 v 17.611328 z"
         style="stroke-width:0.353"
         id="path10191" /><path
         d="m 114.20331,81.330391 q -8.21035,0 -8.21035,-9.078516 0,-4.303613 2.07119,-6.660058 2.0712,-2.368848 5.84151,-2.368848 1.82314,0 3.175,0.58291 1.35185,0.570508 1.97197,1.63711 l -1.83555,1.823144 q -0.5581,-0.843359 -1.42627,-1.302246 -0.85576,-0.458886 -1.86035,-0.458886 -2.39365,0 -3.84472,1.723925 -1.43868,1.723926 -1.43868,4.898926 0,6.920508 5.97793,6.920508 1.79834,0 3.54707,-0.744141 l 0.57051,2.182813 q -2.15801,0.843359 -4.53926,0.843359 z"
         style="stroke-width:0.353"
         id="path10193" /><path
         d="m 123.97636,75.625313 v -2.356445 h 3.00137 q 2.03398,0 3.07578,-1.00459 1.0418,-1.016992 1.0418,-2.96416 0,-1.711524 -1.0418,-2.59209 -1.0418,-0.880567 -3.07578,-0.880567 h -2.95176 v -2.356445 h 2.95176 q 3.31142,0 5.01054,1.475879 1.71153,1.475879 1.71153,4.353223 0,3.112988 -1.71153,4.725293 -1.69912,1.599902 -5.01054,1.599902 z m -2.18281,5.457031 V 63.471016 h 2.48047 v 17.611328 z"
         style="stroke-width:0.353"
         id="path10195" /><path
         d="m 141.52568,81.330391 q -1.50069,0 -2.81533,-0.248047 -1.30225,-0.235644 -2.41846,-0.719336 l 0.32246,-2.505273 q 1.36426,0.58291 2.6293,0.892968 1.27744,0.297657 2.48046,0.297657 1.73633,0 2.57969,-0.607715 0.84336,-0.607715 0.84336,-1.847949 0,-1.575098 -1.6123,-2.306836 l -3.05098,-1.389063 q -1.79834,-0.818554 -2.76572,-1.971972 -0.95498,-1.153418 -0.95498,-2.864942 0,-2.306836 1.38906,-3.571875 1.38906,-1.265039 3.93154,-1.265039 1.77354,0 3.1378,0.520899 1.36425,0.520898 2.62929,1.699121 l -1.73633,1.761133 q -1.0914,-0.892969 -2.04638,-1.289844 -0.94258,-0.409277 -1.97197,-0.409277 -1.27745,0 -1.98438,0.620117 -0.69453,0.607715 -0.69453,1.810742 0,0.855762 0.45889,1.401465 0.45888,0.5333 1.35185,0.95498 l 2.57969,1.21543 q 1.95957,0.917773 2.97656,2.071191 1.01699,1.153418 1.01699,2.96416 0,2.393653 -1.56269,3.59668 -1.5503,1.190625 -4.71289,1.190625 z"
         style="stroke-width:0.353"
         id="path10197" /><path
         d="m 159.74472,81.082344 v -8.557617 q 0,-1.252637 -0.62012,-1.922363 -0.62011,-0.682129 -1.73632,-0.682129 -3.10059,0 -3.10059,3.770312 l -0.76895,-3.373437 h 1.017 q 0.11162,-1.327051 0.96738,-1.971973 0.85576,-0.657324 2.50527,-0.657324 2.0836,0 3.22461,1.265039 1.14102,1.265039 1.14102,3.571875 v 8.557617 z m -8.08633,0 V 62.478829 h 2.6293 v 18.603515 z"
         style="stroke-width:0.353"
         id="path10199" /><path
         d="m 174.60273,81.206367 -0.17363,-3.894335 -0.34727,-1.091407 v -3.398242 q 0,-1.314648 -0.93018,-1.922363 -0.91777,-0.620117 -2.74091,-0.669727 l -3.1502,-0.08682 0.24805,-2.331641 2.6541,0.03721 q 3.26182,0.04961 4.83691,1.413868 1.5875,1.351855 1.5875,3.956347 v 5.481836 l 2.23242,0.272852 v 2.108398 z m -4.63848,0.124024 q -2.05879,0 -3.1874,-0.992188 -1.12861,-0.992187 -1.12861,-2.802929 0,-2.083594 1.55029,-3.199805 1.56269,-1.116211 4.40283,-1.116211 1.17822,0 2.096,0.148828 0.93017,0.136426 1.64951,0.42168 l -0.5457,1.785938 q -0.83096,-0.186036 -1.62471,-0.21084 -0.79375,-0.03721 -1.62471,-0.03721 -3.42305,0 -3.42305,2.083593 0,0.868164 0.58291,1.339453 0.59532,0.47129 1.67432,0.47129 1.22783,0 2.04639,-0.42168 0.83096,-0.42168 1.24023,-1.079004 0.40928,-0.657324 0.40928,-1.351855 v -1.438672 l 0.76894,3.373437 h -1.04179 l 0.42168,-0.396875 q 0,1.141016 -0.5333,1.909961 -0.5209,0.756543 -1.47588,1.141016 -0.95498,0.37207 -2.25723,0.37207 z"
         style="stroke-width:0.353"
         id="path10201" /><path
         d="m 185.88886,75.426875 -0.76894,-4.117578 h 1.01699 q 0.22324,-3.621484 3.62148,-3.621484 2.03399,0 2.95176,1.16582 0.91777,1.165821 0.91777,3.770313 h -2.60449 q 0,-1.438672 -0.43408,-2.071192 -0.42168,-0.632519 -1.37666,-0.632519 -1.67432,0 -2.50527,1.438672 -0.81856,1.426269 -0.81856,4.067968 z m -5.55625,5.655469 v -2.158008 h 8.78086 v 2.158008 z m 2.92695,0 V 67.93586 h 2.13321 l 0.49609,3.770312 v 9.376172 z M 180.8287,70.093868 V 67.93586 h 4.39043 l 0.24805,2.158008 z"
         style="stroke-width:0.353"
         id="path10203" /><path
         d="M 196.30683,86.787422 V 67.93586 h 2.38125 l 0.24805,2.778125 v 16.073437 z m 6.3624,-5.457031 q -1.51308,0 -2.44326,-0.694531 -0.91777,-0.694532 -1.0418,-1.934766 h -1.14101 l 0.89297,-3.745508 q 0,2.033985 0.79375,3.088184 0.80615,1.054199 2.35644,1.054199 1.5875,0 2.40606,-1.128613 0.81855,-1.128613 0.81855,-3.336231 0,-2.33164 -0.81855,-3.522265 -0.81856,-1.190625 -2.40606,-1.190625 -1.55029,0 -2.35644,1.054199 -0.79375,1.054199 -0.79375,3.088184 l -0.89297,-3.745508 h 1.01699 q 0.17363,-1.240235 1.11621,-1.934766 0.95498,-0.694531 2.49287,-0.694531 2.59209,0 3.91914,1.761133 1.32705,1.761133 1.32705,5.184179 0,3.299024 -1.32705,4.998145 -1.32705,1.699121 -3.91914,1.699121 z"
         style="stroke-width:0.353"
         id="path10205" /><path
         d="M 216.74589,83.736446 V 60.816915 h 2.6293 v 22.919531 z m -5.13457,0 V 81.38 h 5.38262 v 2.356446 z m 0,-20.563086 v -2.356445 h 5.38262 v 2.356445 z"
         style="fill:#b3b3b3"
         id="path10207" /></g><g
       aria-label="Model Context Protocol"
       id="text9636"
       style="font-size:8.46667px;font-family:'Cascadia Code';-inkscape-font-specification:'Cascadia Code';fill:#2c8f7b;stroke:#2d1650;stroke-width:0.352999;stroke-linecap:square;stroke-linejoin:round;stroke-miterlimit:3.5"><path
         d="m 97.340268,93.04017 0.124024,-0.950846 h 0.04961 l 0.669727,-2.521811 h 0.587045 v 1.041797 h -0.239779 l -0.669727,2.43086 z m -1.810743,2.397788 v -5.870445 h 0.793751 v 5.870445 z M 97.10049,93.04017 96.430763,90.60931 h -0.239779 v -1.041797 h 0.587045 l 0.669726,2.521811 h 0.03307 l 0.08268,0.950846 z m 1.537891,2.397788 v -5.870445 h 0.79375 v 5.870445 z"
         style="stroke:none;stroke-width:0.353"
         id="path10148" /><path
         d="m 102.44177,95.52064 q -0.90951,0 -1.41387,-0.595313 -0.50436,-0.595312 -0.50436,-1.678451 0,-1.087272 0.50436,-1.678451 0.50436,-0.595313 1.41387,-0.595313 0.91364,0 1.41387,0.595313 0.50436,0.591179 0.50436,1.678451 0,1.083139 -0.50436,1.678451 -0.50023,0.595313 -1.41387,0.595313 z m 0,-0.785482 q 0.48369,0 0.74414,-0.388607 0.26458,-0.388607 0.26458,-1.099675 0,-0.715202 -0.26458,-1.099675 -0.26045,-0.388607 -0.74414,-0.388607 -0.48369,0 -0.74828,0.388607 -0.26045,0.384473 -0.26045,1.099675 0,0.711068 0.26045,1.099675 0.26459,0.388607 0.74828,0.388607 z"
         style="stroke:none;stroke-width:0.353"
         id="path10150" /><path
         d="m 107.06784,95.52064 q -0.85989,0 -1.30638,-0.566374 -0.44235,-0.566374 -0.44235,-1.666049 0,-1.141016 0.44235,-1.72806 0.44649,-0.587045 1.30638,-0.587045 0.49196,0 0.79789,0.231511 0.31006,0.23151 0.3638,0.644922 h 0.339 l -0.25632,1.248503 q 0,-0.677995 -0.26871,-1.029395 -0.26459,-0.3514 -0.78135,-0.3514 -0.52917,0 -0.80202,0.396875 -0.27285,0.396875 -0.27285,1.174089 0,0.735873 0.27285,1.112078 0.27285,0.376204 0.80202,0.376204 0.51676,0 0.78135,-0.3514 0.26871,-0.3514 0.26871,-1.029395 l 0.29766,1.248503 h -0.38034 q -0.0413,0.413412 -0.3514,0.644923 -0.30592,0.23151 -0.81029,0.23151 z m 1.33532,-0.04134 -0.091,-0.859896 v -5.38262 h 0.87644 v 6.201175 z"
         style="stroke:none;stroke-width:0.353"
         id="path10152" /><path
         d="m 112.78533,95.52064 q -1.12035,0 -1.7322,-0.587044 -0.60771,-0.591179 -0.60771,-1.694988 0,-1.07487 0.51676,-1.670183 0.51677,-0.595313 1.45934,-0.595313 0.88884,0 1.37253,0.537435 0.48783,0.537435 0.48783,1.562696 0,0.301791 -0.0248,0.56224 h -3.07578 v -0.669727 h 2.30684 q 0,-0.591178 -0.28112,-0.905371 -0.28112,-0.318327 -0.77722,-0.318327 -0.5581,0 -0.86816,0.380339 -0.30593,0.380338 -0.30593,1.07487 0,0.760677 0.42168,1.157552 0.42582,0.396875 1.20717,0.396875 0.27285,0 0.53743,-0.02894 0.26458,-0.03307 0.53744,-0.08682 l 0.10748,0.768946 q -0.3886,0.07441 -0.71107,0.09509 -0.32246,0.02067 -0.5705,0.02067 z"
         style="stroke:none;stroke-width:0.353"
         id="path10154" /><path
         d="m 117.97778,95.52064 q -0.76068,0 -1.09968,-0.413412 -0.339,-0.413411 -0.339,-1.322917 v -4.547528 h 0.87644 v 4.506187 q 0,0.347266 0.0661,0.566374 0.0662,0.219108 0.25632,0.322461 0.1943,0.103353 0.57051,0.103353 0.34313,0 0.87643,-0.157096 l 0.0992,0.768945 q -0.33487,0.09095 -0.64493,0.132292 -0.30592,0.04134 -0.66145,0.04134 z m -2.72852,-5.56452 v -0.719337 h 1.36426 v 0.719337 z"
         style="stroke:none;stroke-width:0.353"
         id="path10156" /><path
         d="m 127.85831,95.52064 q -2.73678,0 -2.73678,-3.026173 0,-1.434538 0.6904,-2.22002 0.69039,-0.789617 1.94717,-0.789617 0.60771,0 1.05833,0.194304 0.45062,0.190169 0.65732,0.545703 l -0.61185,0.607715 q -0.18603,-0.28112 -0.47542,-0.434082 -0.28525,-0.152962 -0.62012,-0.152962 -0.79788,0 -1.28157,0.574642 -0.47956,0.574642 -0.47956,1.632976 0,2.306837 1.99264,2.306837 0.59945,0 1.18236,-0.248047 l 0.19017,0.727604 q -0.71934,0.28112 -1.51309,0.28112 z"
         style="stroke:none;stroke-width:0.353"
         id="path10158" /><path
         d="m 132.20741,95.52064 q -0.90951,0 -1.41387,-0.595313 -0.50436,-0.595312 -0.50436,-1.678451 0,-1.087272 0.50436,-1.678451 0.50436,-0.595313 1.41387,-0.595313 0.91364,0 1.41386,0.595313 0.50437,0.591179 0.50437,1.678451 0,1.083139 -0.50437,1.678451 -0.50022,0.595313 -1.41386,0.595313 z m 0,-0.785482 q 0.48369,0 0.74414,-0.388607 0.26458,-0.388607 0.26458,-1.099675 0,-0.715202 -0.26458,-1.099675 -0.26045,-0.388607 -0.74414,-0.388607 -0.4837,0 -0.74828,0.388607 -0.26045,0.384473 -0.26045,1.099675 0,0.711068 0.26045,1.099675 0.26458,0.388607 0.74828,0.388607 z"
         style="stroke:none;stroke-width:0.353"
         id="path10160" /><path
         d="m 138.07785,95.437958 v -2.85254 q 0,-0.396876 -0.20671,-0.61185 -0.2067,-0.214974 -0.57877,-0.214974 -1.03353,0 -1.03353,1.21543 l -0.25632,-1.124479 h 0.339 q 0.0372,-0.442351 0.32246,-0.657325 0.28526,-0.219108 0.83509,-0.219108 0.69453,0 1.07487,0.42168 0.38034,0.42168 0.38034,1.190626 v 2.85254 z m -2.69544,0 v -4.382163 h 0.79375 l 0.0827,0.926042 v 3.456121 z"
         style="stroke:none;stroke-width:0.353"
         id="path10162" /><path
         d="m 142.92303,95.52064 q -0.99632,0 -1.44281,-0.413412 -0.44235,-0.413411 -0.44235,-1.322917 V 93.04017 h 0.87644 v 0.7028 q 0,0.520899 0.25218,0.756543 0.25631,0.235645 0.83922,0.235645 0.20671,0 0.43822,-0.02067 0.23151,-0.0248 0.52917,-0.06201 l 0.0992,0.768945 q -0.28939,0.04961 -0.56638,0.07441 -0.27285,0.02481 -0.58291,0.02481 z m -1.88516,-2.14974 v -3.638023 h 0.87644 V 93.3709 Z m -1.09967,-1.595769 v -0.719336 h 3.96875 v 0.719336 z"
         style="stroke:none;stroke-width:0.353"
         id="path10164" /><path
         d="m 147.5119,95.52064 q -1.12034,0 -1.73219,-0.587044 -0.60772,-0.591179 -0.60772,-1.694988 0,-1.07487 0.51677,-1.670183 0.51676,-0.595313 1.45934,-0.595313 0.88884,0 1.37253,0.537435 0.48782,0.537435 0.48782,1.562696 0,0.301791 -0.0248,0.56224 h -3.07578 v -0.669727 h 2.30683 q 0,-0.591178 -0.28112,-0.905371 -0.28112,-0.318327 -0.77721,-0.318327 -0.55811,0 -0.86817,0.380339 -0.30592,0.380338 -0.30592,1.07487 0,0.760677 0.42168,1.157552 0.42581,0.396875 1.20716,0.396875 0.27285,0 0.53744,-0.02894 0.26458,-0.03307 0.53743,-0.08682 l 0.10749,0.768946 q -0.38861,0.07441 -0.71107,0.09509 -0.32246,0.02067 -0.57051,0.02067 z"
         style="stroke:none;stroke-width:0.353"
         id="path10166" /><path
         d="m 150.00891,95.437958 1.7446,-2.414324 1.34772,-1.967839 h 0.99219 l -1.81075,2.488738 -1.28157,1.893425 z m 3.09232,0 -1.33119,-1.893425 -1.76113,-2.488738 h 0.99219 l 1.34772,1.967839 1.7446,2.414324 z"
         style="stroke:none;stroke-width:0.353"
         id="path10168" /><path
         d="m 157.80585,95.52064 q -0.99632,0 -1.44281,-0.413412 -0.44235,-0.413411 -0.44235,-1.322917 V 93.04017 h 0.87644 v 0.7028 q 0,0.520899 0.25218,0.756543 0.25631,0.235645 0.83922,0.235645 0.20671,0 0.43822,-0.02067 0.23151,-0.0248 0.52917,-0.06201 l 0.0992,0.768945 q -0.28939,0.04961 -0.56638,0.07441 -0.27285,0.02481 -0.58291,0.02481 z m -1.88516,-2.14974 v -3.638023 h 0.87644 V 93.3709 Z m -1.09967,-1.595769 v -0.719336 h 3.96875 v 0.719336 z"
         style="stroke:none;stroke-width:0.353"
         id="path10170" /><path
         d="m 165.84258,93.618947 v -0.785482 h 1.00045 q 0.678,0 1.02526,-0.334864 0.34727,-0.338997 0.34727,-0.988054 0,-0.570508 -0.34727,-0.86403 -0.34726,-0.293522 -1.02526,-0.293522 h -0.98392 v -0.785482 h 0.98392 q 1.10381,0 1.67019,0.49196 0.5705,0.491959 0.5705,1.451074 0,1.037664 -0.5705,1.575099 -0.56638,0.533301 -1.67019,0.533301 z m -0.72761,1.819011 v -5.870445 h 0.82683 v 5.870445 z"
         style="stroke:none;stroke-width:0.353"
         id="path10172" /><path
         d="m 171.59726,93.552801 -0.25631,-1.372527 h 0.339 q 0.0744,-1.207162 1.20716,-1.207162 0.67799,0 0.98392,0.388607 0.30592,0.388607 0.30592,1.256771 h -0.86816 q 0,-0.479557 -0.14469,-0.690397 -0.14056,-0.21084 -0.45889,-0.21084 -0.55811,0 -0.83509,0.479558 -0.27286,0.475423 -0.27286,1.35599 z m -1.85208,1.885157 v -0.719336 h 2.92696 v 0.719336 z m 0.97565,0 v -4.382163 h 0.71107 l 0.16536,1.256771 v 3.125392 z m -0.81028,-3.662827 v -0.719336 h 1.46347 l 0.0827,0.719336 z"
         style="stroke:none;stroke-width:0.353"
         id="path10174" /><path
         d="m 176.85586,95.52064 q -0.90951,0 -1.41387,-0.595313 -0.50436,-0.595312 -0.50436,-1.678451 0,-1.087272 0.50436,-1.678451 0.50436,-0.595313 1.41387,-0.595313 0.91364,0 1.41387,0.595313 0.50436,0.591179 0.50436,1.678451 0,1.083139 -0.50436,1.678451 -0.50023,0.595313 -1.41387,0.595313 z m 0,-0.785482 q 0.48369,0 0.74414,-0.388607 0.26458,-0.388607 0.26458,-1.099675 0,-0.715202 -0.26458,-1.099675 -0.26045,-0.388607 -0.74414,-0.388607 -0.48369,0 -0.74828,0.388607 -0.26045,0.384473 -0.26045,1.099675 0,0.711068 0.26045,1.099675 0.26459,0.388607 0.74828,0.388607 z"
         style="stroke:none;stroke-width:0.353"
         id="path10176" /><path
         d="m 182.61055,95.52064 q -0.99633,0 -1.44281,-0.413412 -0.44235,-0.413411 -0.44235,-1.322917 V 93.04017 h 0.87643 v 0.7028 q 0,0.520899 0.25218,0.756543 0.25632,0.235645 0.83923,0.235645 0.2067,0 0.43822,-0.02067 0.23151,-0.0248 0.52916,-0.06201 l 0.0992,0.768945 q -0.28939,0.04961 -0.56637,0.07441 -0.27285,0.02481 -0.58291,0.02481 z m -1.88516,-2.14974 v -3.638023 h 0.87643 V 93.3709 Z m -1.09968,-1.595769 v -0.719336 h 3.96876 v 0.719336 z"
         style="stroke:none;stroke-width:0.353"
         id="path10178" /><path
         d="m 186.77773,95.52064 q -0.9095,0 -1.41386,-0.595313 -0.50437,-0.595312 -0.50437,-1.678451 0,-1.087272 0.50437,-1.678451 0.50436,-0.595313 1.41386,-0.595313 0.91364,0 1.41387,0.595313 0.50436,0.591179 0.50436,1.678451 0,1.083139 -0.50436,1.678451 -0.50023,0.595313 -1.41387,0.595313 z m 0,-0.785482 q 0.4837,0 0.74414,-0.388607 0.26459,-0.388607 0.26459,-1.099675 0,-0.715202 -0.26459,-1.099675 -0.26044,-0.388607 -0.74414,-0.388607 -0.48369,0 -0.74827,0.388607 -0.26045,0.384473 -0.26045,1.099675 0,0.711068 0.26045,1.099675 0.26458,0.388607 0.74827,0.388607 z"
         style="stroke:none;stroke-width:0.353"
         id="path10180" /><path
         d="m 192.16036,95.52064 q -1.12035,0 -1.7322,-0.587044 -0.60771,-0.591179 -0.60771,-1.694988 0,-1.07487 0.57464,-1.670183 0.57878,-0.595313 1.64951,-0.595313 0.64079,0 1.09554,0.239779 0.45889,0.235645 0.65319,0.669727 l -0.67386,0.508496 q -0.18603,-0.30179 -0.47542,-0.467155 -0.28939,-0.165365 -0.63252,-0.165365 -0.62012,0 -0.96325,0.376205 -0.34313,0.37207 -0.34313,1.062468 0,0.748275 0.40101,1.14515 0.40514,0.392741 1.15342,0.392741 0.30592,0 0.61185,-0.02894 0.30592,-0.02894 0.59531,-0.07855 l 0.0992,0.768946 q -0.339,0.07441 -0.7028,0.09922 -0.35967,0.02481 -0.7028,0.02481 z"
         style="stroke:none;stroke-width:0.353"
         id="path10182" /><path
         d="m 196.69962,95.52064 q -0.90951,0 -1.41387,-0.595313 -0.50436,-0.595312 -0.50436,-1.678451 0,-1.087272 0.50436,-1.678451 0.50436,-0.595313 1.41387,-0.595313 0.91364,0 1.41386,0.595313 0.50437,0.591179 0.50437,1.678451 0,1.083139 -0.50437,1.678451 -0.50022,0.595313 -1.41386,0.595313 z m 0,-0.785482 q 0.48369,0 0.74414,-0.388607 0.26458,-0.388607 0.26458,-1.099675 0,-0.715202 -0.26458,-1.099675 -0.26045,-0.388607 -0.74414,-0.388607 -0.4837,0 -0.74828,0.388607 -0.26045,0.384473 -0.26045,1.099675 0,0.711068 0.26045,1.099675 0.26458,0.388607 0.74828,0.388607 z"
         style="stroke:none;stroke-width:0.353"
         id="path10184" /><path
         d="m 202.31374,95.52064 q -0.76067,0 -1.09967,-0.413412 -0.339,-0.413411 -0.339,-1.322917 v -4.547528 h 0.87643 v 4.506187 q 0,0.347266 0.0661,0.566374 0.0662,0.219108 0.25632,0.322461 0.1943,0.103353 0.5705,0.103353 0.34314,0 0.87644,-0.157096 l 0.0992,0.768945 q -0.33487,0.09095 -0.64493,0.132292 -0.30592,0.04134 -0.66146,0.04134 z m -2.72851,-5.56452 v -0.719337 h 1.36426 v 0.719337 z"
         style="stroke:none;stroke-width:0.353"
         id="path10186" /></g></g></svg>
